<mxfile host="app.diagrams.net" modified="2023-11-08T16:05:07.464Z" agent="Mozilla/5.0 (Windows NT 10.0; Win64; x64) AppleWebKit/537.36 (KHTML, like Gecko) Chrome/119.0.0.0 Safari/537.36 Edg/119.0.0.0" etag="7YCVtPOgLyg7M1-OYuuG" version="22.0.8" type="github">
  <diagram id="C5RBs43oDa-KdzZeNtuy" name="Page-1">
    <mxGraphModel dx="818" dy="526" grid="1" gridSize="10" guides="1" tooltips="1" connect="1" arrows="1" fold="1" page="1" pageScale="1" pageWidth="827" pageHeight="1169" math="0" shadow="0">
      <root>
        <mxCell id="WIyWlLk6GJQsqaUBKTNV-0" />
        <mxCell id="WIyWlLk6GJQsqaUBKTNV-1" parent="WIyWlLk6GJQsqaUBKTNV-0" />
        <mxCell id="wVyVek1cdzGCQoksFOU--20" style="edgeStyle=orthogonalEdgeStyle;rounded=0;orthogonalLoop=1;jettySize=auto;html=1;exitX=0.5;exitY=1;exitDx=0;exitDy=0;exitPerimeter=0;" edge="1" parent="WIyWlLk6GJQsqaUBKTNV-1" source="wVyVek1cdzGCQoksFOU--1">
          <mxGeometry relative="1" as="geometry">
            <mxPoint x="370" y="150" as="targetPoint" />
          </mxGeometry>
        </mxCell>
        <mxCell id="wVyVek1cdzGCQoksFOU--1" value="Enough unsupervised data" style="shape=cylinder3;whiteSpace=wrap;html=1;boundedLbl=1;backgroundOutline=1;size=15;fillColor=#d5e8d4;strokeColor=#82b366;" vertex="1" parent="WIyWlLk6GJQsqaUBKTNV-1">
          <mxGeometry x="310" y="10" width="120" height="100" as="geometry" />
        </mxCell>
        <mxCell id="wVyVek1cdzGCQoksFOU--22" style="edgeStyle=orthogonalEdgeStyle;rounded=0;orthogonalLoop=1;jettySize=auto;html=1;exitX=0.5;exitY=1;exitDx=0;exitDy=0;exitPerimeter=0;entryX=0;entryY=0.5;entryDx=0;entryDy=0;" edge="1" parent="WIyWlLk6GJQsqaUBKTNV-1" source="wVyVek1cdzGCQoksFOU--2" target="wVyVek1cdzGCQoksFOU--6">
          <mxGeometry relative="1" as="geometry" />
        </mxCell>
        <mxCell id="wVyVek1cdzGCQoksFOU--33" style="edgeStyle=orthogonalEdgeStyle;rounded=0;orthogonalLoop=1;jettySize=auto;html=1;entryX=0;entryY=0.5;entryDx=0;entryDy=0;" edge="1" parent="WIyWlLk6GJQsqaUBKTNV-1" source="wVyVek1cdzGCQoksFOU--2" target="wVyVek1cdzGCQoksFOU--31">
          <mxGeometry relative="1" as="geometry">
            <Array as="points">
              <mxPoint x="85" y="359" />
            </Array>
          </mxGeometry>
        </mxCell>
        <mxCell id="wVyVek1cdzGCQoksFOU--2" value="Limited supervised data" style="shape=cylinder3;whiteSpace=wrap;html=1;boundedLbl=1;backgroundOutline=1;size=15;fillColor=#d5e8d4;strokeColor=#82b366;" vertex="1" parent="WIyWlLk6GJQsqaUBKTNV-1">
          <mxGeometry x="25" y="30" width="120" height="60" as="geometry" />
        </mxCell>
        <mxCell id="wVyVek1cdzGCQoksFOU--7" style="edgeStyle=orthogonalEdgeStyle;rounded=0;orthogonalLoop=1;jettySize=auto;html=1;" edge="1" parent="WIyWlLk6GJQsqaUBKTNV-1" source="wVyVek1cdzGCQoksFOU--5" target="wVyVek1cdzGCQoksFOU--6">
          <mxGeometry relative="1" as="geometry">
            <Array as="points" />
          </mxGeometry>
        </mxCell>
        <mxCell id="wVyVek1cdzGCQoksFOU--5" value="&lt;span style=&quot;border-color: var(--border-color); color: rgb(0, 0, 0); font-family: Helvetica; font-size: 12px; font-style: normal; font-variant-ligatures: normal; font-variant-caps: normal; font-weight: 400; letter-spacing: normal; orphans: 2; text-indent: 0px; text-transform: none; widows: 2; word-spacing: 0px; -webkit-text-stroke-width: 0px; text-decoration-thickness: initial; text-decoration-style: initial; text-decoration-color: initial; background-color: rgb(251, 251, 251); float: none; display: inline !important;&quot;&gt;Pretrained generic Self-Supvervied Model&lt;/span&gt;&lt;br style=&quot;border-color: var(--border-color); color: rgb(0, 0, 0); font-family: Helvetica; font-size: 12px; font-style: normal; font-variant-ligatures: normal; font-variant-caps: normal; font-weight: 400; letter-spacing: normal; orphans: 2; text-indent: 0px; text-transform: none; widows: 2; word-spacing: 0px; -webkit-text-stroke-width: 0px; background-color: rgb(251, 251, 251); text-decoration-thickness: initial; text-decoration-style: initial; text-decoration-color: initial;&quot;&gt;" style="text;whiteSpace=wrap;html=1;align=center;" vertex="1" parent="WIyWlLk6GJQsqaUBKTNV-1">
          <mxGeometry x="145" y="80" width="120" height="40" as="geometry" />
        </mxCell>
        <mxCell id="wVyVek1cdzGCQoksFOU--10" style="edgeStyle=orthogonalEdgeStyle;rounded=0;orthogonalLoop=1;jettySize=auto;html=1;" edge="1" parent="WIyWlLk6GJQsqaUBKTNV-1" source="wVyVek1cdzGCQoksFOU--6" target="wVyVek1cdzGCQoksFOU--9">
          <mxGeometry relative="1" as="geometry" />
        </mxCell>
        <mxCell id="wVyVek1cdzGCQoksFOU--6" value="Fine Tunining" style="rounded=1;whiteSpace=wrap;html=1;fontSize=12;glass=0;strokeWidth=1;shadow=0;fillColor=#f8cecc;strokeColor=#b85450;" vertex="1" parent="WIyWlLk6GJQsqaUBKTNV-1">
          <mxGeometry x="120" y="170" width="170" height="40" as="geometry" />
        </mxCell>
        <mxCell id="wVyVek1cdzGCQoksFOU--9" value="Fine-tuned SSL model" style="sketch=0;outlineConnect=0;fontColor=#232F3E;gradientColor=none;fillColor=#01A88D;strokeColor=none;dashed=0;verticalLabelPosition=bottom;verticalAlign=top;align=center;html=1;fontSize=12;fontStyle=0;aspect=fixed;pointerEvents=1;shape=mxgraph.aws4.sagemaker_model;" vertex="1" parent="WIyWlLk6GJQsqaUBKTNV-1">
          <mxGeometry x="330" y="151" width="78" height="78" as="geometry" />
        </mxCell>
        <mxCell id="wVyVek1cdzGCQoksFOU--12" value="" style="sketch=0;outlineConnect=0;fontColor=#232F3E;gradientColor=none;fillColor=#01A88D;strokeColor=none;dashed=0;verticalLabelPosition=bottom;verticalAlign=top;align=center;html=1;fontSize=12;fontStyle=0;aspect=fixed;pointerEvents=1;shape=mxgraph.aws4.sagemaker_model;" vertex="1" parent="WIyWlLk6GJQsqaUBKTNV-1">
          <mxGeometry x="166" y="12" width="78" height="78" as="geometry" />
        </mxCell>
        <mxCell id="wVyVek1cdzGCQoksFOU--25" style="edgeStyle=orthogonalEdgeStyle;rounded=0;orthogonalLoop=1;jettySize=auto;html=1;exitX=0.5;exitY=1;exitDx=0;exitDy=0;exitPerimeter=0;entryX=0.5;entryY=0;entryDx=0;entryDy=0;" edge="1" parent="WIyWlLk6GJQsqaUBKTNV-1" source="wVyVek1cdzGCQoksFOU--21" target="wVyVek1cdzGCQoksFOU--26">
          <mxGeometry relative="1" as="geometry">
            <mxPoint x="290" y="320" as="targetPoint" />
          </mxGeometry>
        </mxCell>
        <mxCell id="wVyVek1cdzGCQoksFOU--21" value="Unsupervised data&lt;br&gt;with pseudo-labels" style="shape=cylinder3;whiteSpace=wrap;html=1;boundedLbl=1;backgroundOutline=1;size=15;fillStyle=zigzag-line;fillColor=#d5e8d4;strokeColor=#82b366;gradientColor=none;" vertex="1" parent="WIyWlLk6GJQsqaUBKTNV-1">
          <mxGeometry x="455" y="140" width="120" height="100" as="geometry" />
        </mxCell>
        <mxCell id="wVyVek1cdzGCQoksFOU--24" value="" style="endArrow=classic;html=1;rounded=0;" edge="1" parent="WIyWlLk6GJQsqaUBKTNV-1" source="wVyVek1cdzGCQoksFOU--9" target="wVyVek1cdzGCQoksFOU--21">
          <mxGeometry width="50" height="50" relative="1" as="geometry">
            <mxPoint x="370" y="250" as="sourcePoint" />
            <mxPoint x="320" y="210" as="targetPoint" />
          </mxGeometry>
        </mxCell>
        <mxCell id="wVyVek1cdzGCQoksFOU--30" style="edgeStyle=orthogonalEdgeStyle;rounded=0;orthogonalLoop=1;jettySize=auto;html=1;" edge="1" parent="WIyWlLk6GJQsqaUBKTNV-1" source="wVyVek1cdzGCQoksFOU--26" target="wVyVek1cdzGCQoksFOU--27">
          <mxGeometry relative="1" as="geometry" />
        </mxCell>
        <mxCell id="wVyVek1cdzGCQoksFOU--26" value="Training from scratch" style="rounded=1;whiteSpace=wrap;html=1;fontSize=12;glass=0;strokeWidth=1;shadow=0;fillColor=#e1d5e7;strokeColor=#9673a6;" vertex="1" parent="WIyWlLk6GJQsqaUBKTNV-1">
          <mxGeometry x="430" y="260" width="170" height="40" as="geometry" />
        </mxCell>
        <mxCell id="wVyVek1cdzGCQoksFOU--32" style="edgeStyle=orthogonalEdgeStyle;rounded=0;orthogonalLoop=1;jettySize=auto;html=1;entryX=1;entryY=0.5;entryDx=0;entryDy=0;" edge="1" parent="WIyWlLk6GJQsqaUBKTNV-1" source="wVyVek1cdzGCQoksFOU--27" target="wVyVek1cdzGCQoksFOU--31">
          <mxGeometry relative="1" as="geometry" />
        </mxCell>
        <mxCell id="wVyVek1cdzGCQoksFOU--27" value="Initial Model" style="sketch=0;outlineConnect=0;fontColor=#3E0E04;gradientColor=none;fillColor=#FF0000;strokeColor=none;dashed=0;verticalLabelPosition=bottom;verticalAlign=top;align=center;html=1;fontSize=12;fontStyle=0;aspect=fixed;pointerEvents=1;shape=mxgraph.aws4.sagemaker_model;" vertex="1" parent="WIyWlLk6GJQsqaUBKTNV-1">
          <mxGeometry x="476" y="320" width="78" height="78" as="geometry" />
        </mxCell>
        <mxCell id="wVyVek1cdzGCQoksFOU--35" style="edgeStyle=orthogonalEdgeStyle;rounded=0;orthogonalLoop=1;jettySize=auto;html=1;" edge="1" parent="WIyWlLk6GJQsqaUBKTNV-1" source="wVyVek1cdzGCQoksFOU--31" target="wVyVek1cdzGCQoksFOU--34">
          <mxGeometry relative="1" as="geometry" />
        </mxCell>
        <mxCell id="wVyVek1cdzGCQoksFOU--31" value="Fine Tunining" style="rounded=1;whiteSpace=wrap;html=1;fontSize=12;glass=0;strokeWidth=1;shadow=0;fillColor=#f8cecc;strokeColor=#b85450;" vertex="1" parent="WIyWlLk6GJQsqaUBKTNV-1">
          <mxGeometry x="210" y="339" width="170" height="41" as="geometry" />
        </mxCell>
        <mxCell id="wVyVek1cdzGCQoksFOU--34" value="Final Model" style="sketch=0;outlineConnect=0;fontColor=#3E0E04;gradientColor=none;fillColor=#FF0000;strokeColor=none;dashed=0;verticalLabelPosition=bottom;verticalAlign=top;align=center;html=1;fontSize=12;fontStyle=0;aspect=fixed;pointerEvents=1;shape=mxgraph.aws4.sagemaker_model;" vertex="1" parent="WIyWlLk6GJQsqaUBKTNV-1">
          <mxGeometry x="256" y="398" width="78" height="78" as="geometry" />
        </mxCell>
      </root>
    </mxGraphModel>
  </diagram>
</mxfile>
